<svg xmlns="http://www.w3.org/2000/svg" xmlns:xlink="http://www.w3.org/1999/xlink" width="380" height="121.177" viewBox="0 0 380 121.177">
  <defs>
    <clipPath id="clip-path">
      <rect id="Rettangolo_930" data-name="Rettangolo 930" width="380" height="121.177" fill="none"/>
    </clipPath>
  </defs>
  <g id="Raggruppa_2884" data-name="Raggruppa 2884" clip-path="url(#clip-path)">
    <path id="Tracciato_1338" data-name="Tracciato 1338" d="M121.772,51.308c-6.624,0-10.948-3.927-10.948-11.066V23.463h5.236v16.5c0,4.165,1.9,6.783,5.751,6.783,3.887,0,5.831-2.459,5.831-6.664V23.463h5.276V40.121c0,7.259-4.524,11.186-11.146,11.186" transform="translate(32.777 6.94)" fill="#fff"/>
    <path id="Tracciato_1339" data-name="Tracciato 1339" d="M151.4,50.831,138.508,31.99V50.831h-4.88V23.462h4.958l12.3,17.929V23.462h4.877V50.831Z" transform="translate(39.522 6.94)" fill="#fff"/>
    <rect id="Rettangolo_927" data-name="Rettangolo 927" width="5.274" height="27.369" transform="translate(203.257 30.402)" fill="#fff"/>
    <path id="Tracciato_1340" data-name="Tracciato 1340" d="M180.7,51.014H175.54L165.464,24.2l5.552-.954,7.3,20.985,7.18-20.706h5.473Z" transform="translate(48.938 6.876)" fill="#fff"/>
    <path id="Tracciato_1341" data-name="Tracciato 1341" d="M189.555,50.831V23.462h15.9v4.443H194.751v6.426H203l.714,4.522h-8.964V46.39h11.106v4.442Z" transform="translate(56.063 6.94)" fill="#fff"/>
    <path id="Tracciato_1342" data-name="Tracciato 1342" d="M215.034,27.668h-2.9v8.687h2.658c3.254,0,5.276-1.548,5.276-4.4,0-2.735-1.745-4.282-5.037-4.282m12.017,22.45-5.355.991-7.138-10.75h-2.38V50.831h-5.236V23.463h8.489c6.108,0,9.8,2.895,9.8,8.21a7.67,7.67,0,0,1-5.476,7.7Z" transform="translate(61.205 6.94)" fill="#fff"/>
    <path id="Tracciato_1343" data-name="Tracciato 1343" d="M234.344,51.221a19.842,19.842,0,0,1-8.609-1.9l.8-4.8a16.319,16.319,0,0,0,7.892,2.418c2.42,0,4.086-1.149,4.086-3.331,0-2.023-.952-2.856-4.917-4.561-5.318-2.182-7.457-3.927-7.457-8.171,0-4.84,3.728-7.655,8.845-7.655a14.708,14.708,0,0,1,7.219,1.665l-.793,4.761A12.192,12.192,0,0,0,234.94,27.5c-2.62,0-3.769,1.271-3.769,2.936,0,1.745.873,2.579,4.68,4.165,5.633,2.3,7.7,4.245,7.7,8.49,0,5.354-3.926,8.13-9.2,8.13" transform="translate(66.764 6.868)" fill="#fff"/>
    <rect id="Rettangolo_928" data-name="Rettangolo 928" width="5.275" height="27.369" transform="translate(316.973 30.402)" fill="#fff"/>
    <path id="Tracciato_1344" data-name="Tracciato 1344" d="M266.877,28.024V50.832H261.6V28.024h-8.133V23.463h21.262l.754,4.561Z" transform="translate(74.966 6.94)" fill="#fff"/>
    <path id="Tracciato_1345" data-name="Tracciato 1345" d="M286.126,30.912,282.4,41.462h7.456Zm-1.39-7.733-5.59-4.92,5.83-1.072,2.895,5.992Zm9.2,29.787-2.619-7.219H280.969l-2.5,6.941h-5.2L283.546,25.2h5.594l10.036,26.813Z" transform="translate(80.824 5.084)" fill="#fff"/>
    <path id="Tracciato_1346" data-name="Tracciato 1346" d="M119.472,59.319H116.06V78.04h3.331c5.752,0,9.2-2.935,9.2-9.361,0-6.306-3.649-9.361-9.122-9.361m.039,23.045h-8.687V54.995h8.687c9.52,0,14.439,5.594,14.439,13.644,0,8.132-5.117,13.725-14.439,13.725" transform="translate(32.777 16.266)" fill="#fff"/>
    <rect id="Rettangolo_929" data-name="Rettangolo 929" width="5.275" height="27.369" transform="translate(173.706 71.262)" fill="#fff"/>
    <path id="Tracciato_1347" data-name="Tracciato 1347" d="M160.066,59.2h-2.5v8.845h2.3c3.372,0,5.355-1.389,5.355-4.522,0-2.856-1.786-4.323-5.157-4.323m-.158,13.088h-2.34V82.364h-5.236V54.995h8.013c6.266,0,10.034,2.895,10.034,8.409,0,5.909-4.2,8.884-10.471,8.884" transform="translate(45.054 16.266)" fill="#fff"/>
    <path id="Tracciato_1348" data-name="Tracciato 1348" d="M180.029,60.615,176.3,71.165h7.457Zm7.813,22.054-2.617-7.22H174.872l-2.5,6.943h-5.195L177.45,54.9h5.592l10.036,26.814Z" transform="translate(49.445 16.239)" fill="#fff"/>
    <path id="Tracciato_1349" data-name="Tracciato 1349" d="M199.667,59.2h-2.9v8.685h2.659c3.252,0,5.275-1.547,5.275-4.4,0-2.737-1.745-4.282-5.037-4.282m12.018,22.449-5.355.993-7.14-10.75h-2.379V82.364h-5.237V54.995h8.489c6.109,0,9.8,2.895,9.8,8.21a7.668,7.668,0,0,1-5.475,7.694Z" transform="translate(56.66 16.266)" fill="#fff"/>
    <path id="Tracciato_1350" data-name="Tracciato 1350" d="M236.7,82.364l-1.468-19.991-6.9,20.07h-4.6l-6.941-20.07L215.4,82.364h-4.72l2.1-27.369h6.664l6.941,20.665,6.9-20.665h6.544l2.1,27.369Z" transform="translate(62.31 16.266)" fill="#fff"/>
    <path id="Tracciato_1351" data-name="Tracciato 1351" d="M251.444,60.615l-3.728,10.55h7.456Zm7.813,22.054-2.619-7.22H246.287l-2.5,6.943h-5.2L248.865,54.9h5.594l10.036,26.814Z" transform="translate(70.566 16.239)" fill="#fff"/>
    <path id="Tracciato_1352" data-name="Tracciato 1352" d="M75.235,108.065l-.005-.088a.491.491,0,0,0-.022-.124c0-.014,0-.027,0-.04l-.282-4.968a.669.669,0,0,0-.028-.15c-.124-.362-1.481-3.483-10.931-1.652-3.084.6-5.765,1.3-8.131,1.922a46.968,46.968,0,0,1-6.362,1.4l.188-1.011a.565.565,0,0,0-.507-.667c-4-.356-4.47.336-4.592.675a.582.582,0,0,0-.058.229c-.016.425-.074,2.217-.052,4.352a50.382,50.382,0,0,1-16.728-9.288l.078-4.178.419-22.334c5.685-1.2,5.324-5.337,5.083-8.1a5.742,5.742,0,0,0-.082-.578V63.46a.349.349,0,0,0-.016-.063,6.18,6.18,0,0,0-4.735-4.479l.013-.714.206-10.818c4.669,1.092,7.383,4.163,8.277,9.376.93,5.418-.329,9.919-1.249,13.206a31.641,31.641,0,0,0-.763,3.088c-.623,3.719-.612,12.018,3.894,16.8l.005.005.006.005a11.189,11.189,0,0,0,2.52,2.011,68.88,68.88,0,0,0,7.877,4.128.111.111,0,0,0,.022.008l.018.006.012,0h0a52.639,52.639,0,0,0,11.583,1.84c1.052.073,2.108.127,3.147.165h.022c1.177.043,2.327.063,3.427.063a47.742,47.742,0,0,0,7.394-.456h0c.421-.071.77-.146,1.063-.227a28.976,28.976,0,0,0,10.059-5.358.641.641,0,0,0,.122-.092A37.089,37.089,0,0,0,98.89,74.154l.148-.408a.58.58,0,1,0-1.088-.4l-.15.413A36.115,36.115,0,0,1,86.274,90.386c-.031-1.568-.088-4.6-.155-8.238a20.5,20.5,0,0,0,9.77-15.068.58.58,0,1,0-1.149-.155A19.369,19.369,0,0,1,86.093,80.8c-.043-2.358-.088-4.911-.131-7.457,7.189-2.9,9.244-10.669,10.129-14.023.056-.21.106-.4.154-.573l.8.257a.594.594,0,0,0,.176.027.576.576,0,0,0,.342-.113L99.923,57.2c-.035,3.532.35,10.571,8.766,15.962a50.127,50.127,0,0,1-6.457,14.375c-.745-3.885-.131-8.4.289-11.483.111-.811.21-1.538.272-2.15a.577.577,0,0,0-.517-.635.583.583,0,0,0-.636.517c-.061.6-.158,1.314-.267,2.111-.472,3.444-1.18,8.647-.034,12.959a50.614,50.614,0,0,1-26.1,19.208m-.846,6.055a1.059,1.059,0,0,1-.925.6c-.86-.06-4.774-.245-5.889,1.279a8.015,8.015,0,0,1-.425-1.845c1.285-.369,2.406-.687,3.3-.911,2.864-.717,3.686-.049,3.87.174a.6.6,0,0,1,.092.149l.023.431a.8.8,0,0,1-.045.124M68.616,117.4a1,1,0,0,1-.111-.07c-.183-.411-.075-.583-.029-.65a2.236,2.236,0,0,1,1.37-.648,2.42,2.42,0,0,0,.684,1.258,2.7,2.7,0,0,1-1.914.11M45.961,103.8a14.723,14.723,0,0,1,2.471-.029l-.122.657a4.275,4.275,0,0,1-2.1-.478c-.1-.056-.179-.1-.246-.15m.437,11.865c-.792-1.726-.856-7.5-.794-10.755.016.008.032.018.045.026a6.039,6.039,0,0,0,3.5.6,42,42,0,0,0,6.976-1.471c2.349-.617,5.012-1.315,8.06-1.906,7.829-1.519,9.42.54,9.617.863l.277,4.859A.66.66,0,0,0,74.1,108c0,.013,0,.026,0,.039l.227,4.031a6.693,6.693,0,0,0-4.153.07c-1.047.263-2.383.647-3.931,1.092-6.457,1.858-17.235,4.959-19.843,2.43M16.68,85.672a30.291,30.291,0,0,0,.8-8.424l0-.016a.494.494,0,0,0-.012-.076l-.005-.031a36.347,36.347,0,0,0-1.174-7.439c-.084-.334-.15-.6-.184-.776a.567.567,0,0,0-1.113.22c.04.2.11.482.2.832a36.265,36.265,0,0,1,1.079,6.244c-3.451-2.375-4.644-6.585-5.022-9.824a27.469,27.469,0,0,1,1-11.055c1.687-4.908,7.1-7.075,8.63-7.6a3.636,3.636,0,0,0,2.651,1.252c.089,0,.175,0,.254-.01a5.237,5.237,0,0,0,3.775-2.849l-.01.536-.11,5.751a16.533,16.533,0,0,0-7.049,2.719c-.009.005-.014.013-.023.018s-.031.025-.045.038a.341.341,0,0,0-.032.029A28.678,28.678,0,0,0,13.2,62.173a.567.567,0,0,0,.921.662,27.853,27.853,0,0,1,6.312-6.357c.971,2.663,3.734,12.543,3.26,21.081-.06,1.075-.126,2.1-.188,3.071-.477,7.43-.767,11.992,3.131,14.182l-.053,2.858a50.7,50.7,0,0,1-9.9-12m11.664-20.01.1-5.555a4.985,4.985,0,0,1,3.585,3.368,5.871,5.871,0,0,1-3.689,2.187m-1.009-7.974A11.188,11.188,0,0,0,22.7,59.995a39.64,39.64,0,0,0-1.269-4.157,15.219,15.219,0,0,1,5.979-2.255Zm8.974-33.6c.039.958.086,2.369.14,3.957l.069,1.971c-1.412.842-2.6,1.547-3.609,2.142-1.881,1.112-3.107,1.837-3.973,2.395.056-2.868.1-4.933.119-5.857l.039-.027a69.59,69.59,0,0,1,7.215-4.581m1.346,5.249L37.609,28c-.066-1.922-.123-3.589-.162-4.5.516-.255,1-.481,1.482-.692,5.533-2.919,7.467-1.542,8.6.254.121.908.3,2.437.511,4.474-2.374-1.687-5.523-1.108-10.38,1.8m11.133,6.06c-1.5-.674-4.025-.235-7.5,1.309-.709.315-1.9.91-3.273,1.624-.106-1.767-.246-5.692-.314-7.67l.54-.323c5.843-3.5,8.246-2.993,9.971-1.088.237,2.305.465,4.648.613,6.167-.013-.005-.025-.013-.038-.018M33.5,33.152c.873-.516,1.887-1.116,3.066-1.817.148,4.229.251,6.608.329,7.581-.591.315-1.2.641-1.8.972l0,0A64.6,64.6,0,0,0,28.76,43.7l.149-7.736c.838-.591,2.161-1.374,4.591-2.811m5.362,9.977a2.882,2.882,0,0,0-1.7,1.482.439.439,0,0,0-.013.044c-1.038-.947-1.122-2.818-1.173-3.924,2.3-1.256,4.695-2.485,5.786-2.97,4.146-1.841,5.885-1.612,6.554-1.311a1.214,1.214,0,0,1,.656.669c-.242,1.62-1,2.639-10.107,6.01m5.587,1.936a4.4,4.4,0,0,0-2.214-.294,20.249,20.249,0,0,0-3.128.477,3.553,3.553,0,0,1-.833-.049.32.32,0,0,1-.013-.227c.1-.3.648-.627,1-.753,1.922-.711,3.493-1.326,4.788-1.874a7.016,7.016,0,0,1,.4,2.72M41.307,47.2a5.291,5.291,0,0,1,.828-.7,1.424,1.424,0,0,0,.544-.583c.938-.01,1.275.165,1.327.241.01.012.014.1-.066.282A8.076,8.076,0,0,1,42.512,47.7a7.984,7.984,0,0,0-1.525,1.389,1.842,1.842,0,0,1,.32-1.892M23.753,33.555c1.379,1.12,4.123,4.954,3.863,8.6a6.676,6.676,0,0,0-3.641-1.438,5.529,5.529,0,0,0-4.192,1.427c-.231-4.2,2.934-7.6,3.97-8.592m-2.23,13.178a.574.574,0,0,0-.056-.07,7.587,7.587,0,0,1-.973-1.631,8.184,8.184,0,0,1-.5-1.459,4.6,4.6,0,0,1,3.89-1.7c1.412.155,3.049.793,3.443,1.836-.656,2.265-2.168,3.979-3.644,4.1a2.509,2.509,0,0,1-2.16-1.079m1.482,14.484.1-.074a11.391,11.391,0,0,1,4.207-2.27l-.143,7.537-.1,5.235h0v.008l-.408,21.79c-2.685-2.019-2.419-6.19-2-12.74.062-.976.128-2,.189-3.08a60.932,60.932,0,0,0-1.846-16.407m5.239,9.735.076-4.083a8.807,8.807,0,0,0,3.9-1.815c.159,2.83-.29,5.035-3.972,5.9M60.038,9.638a50.471,50.471,0,0,1,46.932,32.048,16.469,16.469,0,0,0-7.946-2.264c.044-.288.084-.558.119-.8h0c.063-.457.12-.906.162-1.287a8.324,8.324,0,0,0,.039-3.554c0-.093-.006-.187-.012-.279a8.613,8.613,0,0,0-2.748-5.832,7.908,7.908,0,0,0-11.508.726A8.768,8.768,0,0,0,85.461,40a12.124,12.124,0,0,0-5.3,2.374,14.552,14.552,0,0,0-1.993-8.382.586.586,0,0,0-.073-.119,9.361,9.361,0,0,0-1.278-1.652,6.636,6.636,0,0,0-2.148-1.639,7.891,7.891,0,0,0-1.611-3.7c.334-.707,1.07-2.29,1.322-2.97a.579.579,0,0,0-.682-.764c-1.315.325-2.822-.84-3.128-1.2a.579.579,0,0,0-.685-.149,5.112,5.112,0,0,1-3.822.521.581.581,0,0,0-.661.735l1.087,3.715a5.275,5.275,0,0,0-.088,5.17,14.711,14.711,0,0,1-4.669-2.212c-.145-.092-.284-.181-.419-.264l1.332-4.337a.581.581,0,0,0-.763-.711c-2.106.8-3.011-.249-3.02-.258a.58.58,0,0,0-.709-.146c-1.9.959-2.858.3-3.269.025l-.087-.058a.579.579,0,0,0-.871.661c.056.175.183,1.031.285,1.721.161,1.077.342,2.3.507,2.886a.572.572,0,0,0,.575.424,17.6,17.6,0,0,1,4.871.523c1.147,3.614,4.154,6.681,6.823,6.905,1.894.159,2.344.81,2.86,1.717a12.355,12.355,0,0,1-2.078.924,35.776,35.776,0,0,0-5.11,2.247,6.816,6.816,0,0,0,.77-5.385.579.579,0,0,0-1.012-.168c-1.425,1.874-4.035,2.44-6.341,2.94l-.229.049a.579.579,0,0,0,.246,1.132l.229-.049c2.126-.46,4.495-.973,6.192-2.48A7.048,7.048,0,0,1,60.22,43.3a32.922,32.922,0,0,1-3.239,1.587,12.869,12.869,0,0,1-2.926.875,6.021,6.021,0,0,1-.59-4.382,6.3,6.3,0,0,1,1.844-3.663.58.58,0,0,0-.03-1.026,2.861,2.861,0,0,1-1.6-1.757,3.3,3.3,0,0,1,.257-2.413,2.619,2.619,0,0,1,2.623-.849c1.57.212,2.772,2.615,3.076,3.771a3.414,3.414,0,0,1-3.146.455.579.579,0,0,0-.312,1.116,4.517,4.517,0,0,0,4.477-.9.578.578,0,0,0,.194-.516c-.132-.973-1.5-4.717-4.132-5.073a3.669,3.669,0,0,0-3.775,1.4,4.433,4.433,0,0,0-.372,3.339,3.843,3.843,0,0,0,1.476,2.04,9,9,0,0,0-1.722,3.846,9.376,9.376,0,0,0-.18,1.49,2.889,2.889,0,0,0-1.392,3.083c.047.153.091.321.139.5.349,1.315.875,3.283,3.383,3.924a7.716,7.716,0,0,1-3,6.446q-.915.091-1.9.288a13.455,13.455,0,0,0-2.6-2c-3.138-1.871-6.992-2.545-9.635-1.736A11.113,11.113,0,0,0,28.712,46.2l.019-1c.391-.409,2.017-1.573,6.112-3.852.1,1.633.482,4.187,2.811,4.885a.588.588,0,0,0,.153.044,4.439,4.439,0,0,0,1.087.131c.109,0,.22,0,.333-.009a.518.518,0,0,0,.1-.017c.01,0,.638-.153,1.45-.284-.091.083-.188.174-.293.28-1.175,1.182-.987,3.216.47,5.061a.58.58,0,0,0,.926-.7c-.441-.614-.073-1.047,1.335-2.12a8.984,8.984,0,0,0,1.617-1.447A.615.615,0,0,0,44.9,47.1l.009-.013,0,0c.009-.013.019-.022.027-.035l.005-.006c.032-.04.063-.082.092-.124,1.072-1.635.492-3.784.08-5.041,4.2-1.894,4.8-2.988,5.028-4.761V37.1c0-.014,0-.03,0-.045v0a.389.389,0,0,0,0-.054V36.99s-.39-4.115-.794-8.051v-.01c-.21-2.038-.5-4.754-.689-6.148a.607.607,0,0,0-.08-.222c-2.536-4.179-7.028-2.445-10.148-.8-.57.246-1.171.53-1.84.868a67.086,67.086,0,0,0-8.166,5.088l-.275.194a.586.586,0,0,0-.246.46c-.019.8-.073,3.442-.148,7.277l-.029,1.507a11.563,11.563,0,0,0-3.74-4.847.582.582,0,0,0-.657.063c-.058.049-5.806,4.959-4.536,11.157l.009.034h0a9.206,9.206,0,0,0,.635,1.948,9.444,9.444,0,0,0,.683,1.254c-2.037.759-7.242,3.144-8.973,8.184-1.524,4.435-3.067,17.907,5.183,22.659a29.306,29.306,0,0,1-.513,6.555A50.371,50.371,0,0,1,60.038,9.638m40.572,43.8c-.513-1.091-1.061-2.349-1.664-3.821.939-.606,2.064-1.357,2.893-1.914l0,0,.311-.211a18.6,18.6,0,0,0,1.7,2.728,12.76,12.76,0,0,1-3.243,3.223m-6.093,3.545c.083-.237.163-.481.241-.735.124-.412.244-.842.347-1.275a16.082,16.082,0,0,0,.516-4.161.581.581,0,0,0-.384-.534L90.851,48.7a.589.589,0,0,0-.45.025.578.578,0,0,0-.3.339c-.021.062-.041.117-.062.176-.24-1.112-.43-2.011-.561-2.649,2.371.574,5.5,1.607,5.538,1.618a.585.585,0,0,0,.568-.118l1.252-1.11,0,0,3.418-3.033.609,3.01c-.912.612-2.068,1.379-2.954,1.941a.579.579,0,0,0-.227.707c.788,1.945,1.485,3.54,2.133,4.876.175.36.346.7.512,1.018h0c-.014.005-.028.009-.043.016a1.972,1.972,0,0,0-.1.057l-.009.005L97.122,57.81ZM85.941,72.095c-.052-3.109-.1-6.151-.133-8.748.019.009.038.021.057.03a3.741,3.741,0,0,0,1.581.346A5.717,5.717,0,0,0,90.4,62.76,9.744,9.744,0,0,0,94.1,58.065l1.043.332c-.052.188-.108.4-.168.628-.823,3.116-2.709,10.251-9.03,13.069M68.6,82.537a15.521,15.521,0,0,0,.921,2.836,10.208,10.208,0,0,1-.347-10.926c.4.4.706.707.862.867-1.27,1.49-2.205,3.749-1.436,7.223m4.069-21.913a2.393,2.393,0,0,1-.42,1.787,2.444,2.444,0,0,1-1.582.78c-.352-1.24-.489-2.7.473-3.427a3.168,3.168,0,0,1,2.271-.89,1.719,1.719,0,0,1,1.1.879c.008.012.016.026.022.038a5.287,5.287,0,0,1-.691.076,2.334,2.334,0,0,0-.828.148.581.581,0,0,0-.345.61M92.809,29.249c-3.475.468-5.49,2.573-5.674,5.927a11.191,11.191,0,0,0,1.225,5.245.463.463,0,0,0,.034.073c.041.088.089.178.132.267a6.991,6.991,0,0,1-1.418-.841q-.031-.025-.062-.047a7.59,7.59,0,0,1-1.082-10.735,6.747,6.747,0,0,1,9.835-.621,7.341,7.341,0,0,1,1.649,2.236,7.549,7.549,0,0,0-4.639-1.5M94.043,46.68a30.759,30.759,0,0,1-4.391-6.26L93.689,37.7l4.233,1.253a25.035,25.035,0,0,1-1.931,7.233L95.067,47c-.237-.076-.593-.19-1.024-.324m4.162-12.7a7.268,7.268,0,0,1-.043,3.164q-.037.315-.078.641l-4.329-1.282a.577.577,0,0,0-.489.075l-4.111,2.774a9.479,9.479,0,0,1-.862-4.117c.155-2.816,1.725-4.444,4.669-4.841.041-.006,4.365-.005,5.243,3.584M88.172,45.932c.118.653.483,2.395,1.057,5.035a3.814,3.814,0,0,1-2.467,1.661.58.58,0,0,0,.133,1.144.544.544,0,0,0,.136-.017,5.594,5.594,0,0,0,1.634-.654,7.478,7.478,0,0,0,4.783,3.425c-1.074,3.127-2.56,4.577-3.649,5.244a3.627,3.627,0,0,1-3.452.553c-1.6-.735-2.792-3.234-3.442-7.228-.959-5.9,1.16-10.077,6.474-12.763a32.338,32.338,0,0,0,2.638,3.738c-1.073-.308-2.222-.615-3.158-.809a.58.58,0,0,0-.688.67m5.811,8.745c-.06.254-.124.5-.189.733a6.325,6.325,0,0,1-4.214-3.039,5.419,5.419,0,0,0,.709-.9.673.673,0,0,0,.084-.137,8.545,8.545,0,0,0,.634-1.342l3.451,1.241a14.465,14.465,0,0,1-.474,3.447m-37.87-4.327.119,0c0,.029,0,.057.005.086.089,1.942.2,4.347,4.044,8.215-.133.266-.251.529-.358.789a8.918,8.918,0,0,0-6.862-2.927,8.684,8.684,0,0,0,2.376-6.186c.214.016.438.026.675.026m4.776,7.261c-3.317-3.414-3.412-5.437-3.493-7.23,0-.036,0-.07-.005-.1.13-.014.259-.03.4-.048a42.38,42.38,0,0,1,4.31-.359,14.419,14.419,0,0,0,2.042,4.888,8.213,8.213,0,0,0-1.578,1.011,8.53,8.53,0,0,0-1.67,1.844M78.754,43.781a10.338,10.338,0,0,0-2.046,4.481c-6,.126-7.791,3.6-8.32,5.53a10.672,10.672,0,0,0-3.151.513,13.21,13.21,0,0,1-2.1-5.114.367.367,0,0,0-.01-.054,5.954,5.954,0,0,1-.018-1.945,2.278,2.278,0,0,1,1.718-1.949,17.079,17.079,0,0,1,3.8-.374c3-.092,6.409-.2,8.359-2.563a7.494,7.494,0,0,0,1.493-4.724,11.855,11.855,0,0,1,.273,6.2M72.167,26.037a6.26,6.26,0,0,0-.535-.36,4.2,4.2,0,0,0-4.213.146l-.653-2.233A5.777,5.777,0,0,0,70,23.011a5.372,5.372,0,0,0,2.937,1.332c-.245.557-.547,1.212-.772,1.694m1.162,4.36h-.016a.555.555,0,0,0-.141.019,4.913,4.913,0,0,0-.665.139,4.7,4.7,0,0,1-4.285-3.837,2.914,2.914,0,0,1,2.813-.044,4.652,4.652,0,0,1,.89.682.444.444,0,0,0,.035.035,6.057,6.057,0,0,1,1.484,3l-.115.009m-5.538,1.675a4.45,4.45,0,0,1-.482-4.382,5.658,5.658,0,0,0,3.3,3.576c-.266.114-.542.236-.84.369a4.946,4.946,0,0,1-1.976.437m-7.554-3.066a18.672,18.672,0,0,0-4.408-.512h-.095c-.124-.613-.262-1.538-.377-2.314q-.056-.373-.1-.674a4.251,4.251,0,0,0,3.049-.293,3.665,3.665,0,0,0,2.915.583Zm6.846,6.93c-1.9-.159-4.089-2.23-5.3-4.812a11.844,11.844,0,0,0,5.624,2.1.64.64,0,0,0,.07.008c.012,0,.022,0,.032,0l.165,0a6.28,6.28,0,0,0,2.568-.538,19.743,19.743,0,0,1,2.62-1.034c.525,2.9-.117,5-2.046,6.5a4.038,4.038,0,0,0-3.73-2.229M53.269,46.984c.141,0,.289-.008.444-.019a.754.754,0,0,0,.078.006.577.577,0,0,0,.187-.032,13.39,13.39,0,0,0,3.444-.982,35.483,35.483,0,0,0,3.434-1.683l.665-.364a40.664,40.664,0,0,1,6.625-3.081c4.726-1.638,6.652-4.667,5.876-9.244a4.68,4.68,0,0,1,1.971,1.45,8.032,8.032,0,0,1,1.091,1.412c.527,3.339.2,5.67-.991,7.122-1.616,1.96-4.741,2.056-7.5,2.142a17.685,17.685,0,0,0-4.08.419,3.429,3.429,0,0,0-2.54,2.855,6.439,6.439,0,0,0-.052,1.732c-1.368.047-2.805.165-4.289.364-.316.043-.61.071-.889.089h-.008a7.541,7.541,0,0,1-1.8-.074l-.025,0a3.122,3.122,0,0,1-2.61-2.216,4.092,4.092,0,0,0,.969.108m-1.037-2.856a6.083,6.083,0,0,0,.508,1.651,1.266,1.266,0,0,1-.924-.527,1.651,1.651,0,0,1,.416-1.123M74.873,96.465c-3.864-1.859-5.506-4.635-7.09-7.322-1.372-2.331-2.786-4.731-5.6-6.4a14.494,14.494,0,0,0,3.455-2.059.581.581,0,0,0-.282-1.034c-4.47-.568-6.291-2.7-6.5-3.153a.569.569,0,0,0-.6-.455.58.58,0,0,0-.543.616c.036.595,1.745,2.965,6.111,3.905-4.118,2.708-6.468,1.372-7.972.345l-.117-6.879a.579.579,0,0,0-.908-.466l-.492.338c-.653-1.039-1.153-2.349-.53-3.425a3.915,3.915,0,0,1,3.464-1.55c1.3.139,1.542,2.481,1.719,4.193.025.232.049.456.073.666a2.4,2.4,0,0,1-2.319-.68.58.58,0,1,0-.815.824,3.576,3.576,0,0,0,4.032.767.585.585,0,0,0,.314-.609c-.049-.315-.088-.687-.131-1.088-.219-2.106-.518-4.989-2.75-5.226a5.048,5.048,0,0,0-4.59,2.121c-.533.917-.833,2.453.578,4.666l-1.059.73a.577.577,0,0,0-.249.5c.027.68.043,2.238.047,4.183a.649.649,0,0,0-.067-.018c-4.469-.569-6.292-2.7-6.5-3.154a.6.6,0,0,0-.6-.453.58.58,0,0,0-.543.615c.038.595,1.752,2.965,6.112,3.905-4.143,2.722-6.5,1.349-7.974.334l-.115-6.869a.58.58,0,0,0-.91-.468l-.49.338c-.654-1.039-1.153-2.348-.531-3.423a3.9,3.9,0,0,1,3.465-1.55c1.3.137,1.541,2.481,1.719,4.192.025.233.047.456.071.666a2.4,2.4,0,0,1-2.319-.679.58.58,0,1,0-.815.824A3.579,3.579,0,0,0,46.634,75a.582.582,0,0,0,.315-.609c-.049-.315-.088-.687-.131-1.088-.218-2.106-.518-4.99-2.748-5.227A5.062,5.062,0,0,0,39.478,70.2c-.533.917-.833,2.453.578,4.665L39,75.593a.584.584,0,0,0-.25.5c.07,1.7.009,7.93-.036,11.759-3.2-4.551-3.153-11.383-2.614-14.606a30.321,30.321,0,0,1,.739-2.967c.948-3.392,2.248-8.04,1.275-13.716a17.3,17.3,0,0,0-.568-2.336c2.317-.682,5.837-.035,8.645,1.64a10.091,10.091,0,0,1,5.151,7.5.579.579,0,0,0,.577.521.439.439,0,0,0,.058,0,.58.58,0,0,0,.52-.635,10.218,10.218,0,0,0-2.209-5.367c4.2-.689,7.287.27,9.2,2.849a11.425,11.425,0,0,0-.4,2.371.578.578,0,0,0,.549.608h.03a.578.578,0,0,0,.578-.552,10.543,10.543,0,0,1,.416-2.335l0-.012a9.581,9.581,0,0,1,.814-1.953.685.685,0,0,0,.038-.067,7.544,7.544,0,0,1,1.779-2.132c1.846-1.508,4.408-2.028,7.62-1.543a.58.58,0,0,0,.174-1.147c-.516-.078-1.015-.13-1.5-.159.578-1.824,2.236-4.232,6.948-4.393a10.1,10.1,0,0,0-.04,1.55.581.581,0,0,0,.578.543h.038a.58.58,0,0,0,.543-.615,9.509,9.509,0,0,1,2.06-6.494.66.66,0,0,0,.066-.08,10.66,10.66,0,0,1,6.807-3.352,8.141,8.141,0,0,0,1.376.806c-5.166,2.947-7.2,7.378-6.2,13.5a22.6,22.6,0,0,0,.945,3.874l-1.552.469c-1.756.53-3.714,1.122-4.919,1.472-.078-.211-.145-.428-.21-.639-.048-.162-.1-.321-.15-.476v0l0-.013h0v0a4.02,4.02,0,0,0-.381-.832,2.843,2.843,0,0,0-1.874-1.4,4.155,4.155,0,0,0-3.177,1.108c-1.289.976-1.543,2.763-.736,5.165h0a13.228,13.228,0,0,0,.719,1.713l-.009-.012a.581.581,0,0,0-.757-.155s-.894.52-2.173,1.327q-.892.562-1.717,1.113l.783-3.217a.58.58,0,0,0-1.127-.275l-1.139,4.679v.016a.383.383,0,0,0-.009.067c0,.016,0,.031-.005.047s0,.041,0,.062,0,.034.006.051a.389.389,0,0,0,.014.056c.005.018.01.036.017.053l.022.047a.48.48,0,0,0,.032.056.034.034,0,0,0,.009.014.162.162,0,0,0,.019.025.4.4,0,0,0,.043.051l0,0h0s2.227,2.216,3.905,3.891a11.291,11.291,0,0,0,.443,12.73.577.577,0,0,0,1.043-.308,16.257,16.257,0,0,0,5.059,5.992v2.586a.58.58,0,0,0,.581.579h0a.58.58,0,0,0,.579-.581l0-2.9L76.034,72.5c2.6.555,5.975,1.276,6.163,1.324a.58.58,0,1,0,.294-1.122c-.219-.058-5.8-1.248-6.917-1.486a.587.587,0,0,0-.486.117.58.58,0,0,0-.215.451l.012,18.781a15.155,15.155,0,0,1-5.155-8.28c-1.183-5.341,2.187-7.308,3.807-8.253.157-.092.3-.174.413-.246a.58.58,0,0,0-.615-.982c-.108.067-.237.143-.381.227a12.658,12.658,0,0,0-2.1,1.459c-.18-.184-.546-.549-1.315-1.32-1.244-1.241-2.952-2.944-3.784-3.771.736-.5,1.523-1.017,2.351-1.539.717-.454,1.311-.814,1.688-1.04,1.205,1.655,2.06,3.007,2.44,3.628-.359.271-.671.551-.952.8a.58.58,0,0,0,.775.864c1.205-1.082,2.7-2.43,6.064-1.372a.58.58,0,0,0,.349-1.107,6.614,6.614,0,0,0-5.254.192c-.354-.579-1.082-1.732-2.115-3.18a.564.564,0,0,0,.218.045h.047a4.541,4.541,0,0,0,4.083-3.34.58.58,0,1,0-1.132-.249,3.269,3.269,0,0,1-2.7,2.38A11.433,11.433,0,0,1,71.05,64.3a3.455,3.455,0,0,0,2.1-1.153,3.34,3.34,0,0,0,.706-2.119l.056,0a5.788,5.788,0,0,0,1.038-.139,7.6,7.6,0,0,0,.419,1.127l.01.023.009.018a3.718,3.718,0,0,0,1.958,1.824,8.4,8.4,0,0,1,4.308,4.2.579.579,0,0,0,.522.327.59.59,0,0,0,.253-.058.583.583,0,0,0,.268-.776,9.522,9.522,0,0,0-4.9-4.763,2.672,2.672,0,0,1-.98-.678c1.222-.356,3.035-.906,4.673-1.4l1.648-.5a7.548,7.548,0,0,0,1.5,2.265c.039,3,.1,6.707.159,10.461.052,3.044.106,6.115.157,8.86.086,4.665.158,8.387.179,9.438a27.164,27.164,0,0,1-9.489,5.031c-.224.062-.483.118-.768.171m-10.509.417a13.537,13.537,0,0,1-1.506-3.125c-1.024-2.671-2.178-5.682-6.906-6.117l-.091-5.335a6.549,6.549,0,0,0,3.464,1.033,6.752,6.752,0,0,0,1.258-.122c3.246,1.508,4.683,3.94,6.2,6.515,1.464,2.485,2.976,5.043,6.138,6.991a71.24,71.24,0,0,1-8.557.161m-3.273-.166c-3.79-1.854-5.345-4.6-6.846-7.258-.333-.591-.667-1.175-1.018-1.748.053-4.505.052-9.778,0-11.648l1.354-.933.1,6.1.117,6.931v.023l0,.034.018,1.05a.581.581,0,0,0,.579.57h.012a.58.58,0,0,0,.569-.591l-.008-.435c3.9.4,4.787,2.709,5.8,5.364a19.057,19.057,0,0,0,1.177,2.651c-.618-.03-1.239-.063-1.859-.106M52.085,86.032a11.734,11.734,0,0,0-3.3-2.956,14.04,14.04,0,0,0,3.32-1.928c0,1.533-.008,3.224-.022,4.884M49.913,95c-.126-.311-.25-.623-.369-.939-1.021-2.669-2.176-5.681-6.9-6.116L42.552,82.6a6.563,6.563,0,0,0,3.47,1.038,6.786,6.786,0,0,0,1.153-.1,11.183,11.183,0,0,1,4.974,4.635l.022.036c.371.6.717,1.208,1.065,1.824A18.029,18.029,0,0,0,58.46,96.5,45.983,45.983,0,0,1,49.913,95m-10-18.632,1.353-.934.219,13.006c0,.014-.005.03-.005.045a.477.477,0,0,0,.008.075l.017,1.007a.58.58,0,0,0,.581.57H42.1a.58.58,0,0,0,.57-.59l-.008-.435c3.847.4,4.759,2.649,5.758,5.258-1.946-.907-4.1-2.128-6.455-3.495a9.9,9.9,0,0,1-2.11-1.652c.052-4.009.122-10.589.063-12.855m69.076-4.393c-7.847-5.205-7.957-11.955-7.905-15.111,1.719,2.9,3.064,3.6,4.882,3.6.174,0,.354-.005.535-.018a.578.578,0,0,0,.542-.614.57.57,0,0,0-.614-.543c-1.5.091-2.812.176-5.317-4.807a13.761,13.761,0,0,0,3.539-3.385,2.241,2.241,0,0,0,1.209.654.408.408,0,0,0,.057,0,.58.58,0,0,0,.054-1.157c-.233-.023-.573-.321-.958-.783a.718.718,0,0,0-.051-.06,18.748,18.748,0,0,1-2.069-3.372.58.58,0,0,0-.847-.227l-.14.1-.711-3.524a.585.585,0,0,0-.384-.435.578.578,0,0,0-.57.115l-2.332,2.068a33.565,33.565,0,0,0,.917-3.9,14.5,14.5,0,0,1,8.811,3.018c.014.013.031.022.045.034a50.436,50.436,0,0,1,1.306,28.342m2.594-11.948a51.549,51.549,0,1,0-67.113,49.144c.071,2.787.306,5.813.948,7.079a.538.538,0,0,0,.095.135c2.91,3.066,12.956.262,20.529-1.915.135,1.059.591,3.211,2.062,3.947a2.6,2.6,0,0,0,1.173.253,6.566,6.566,0,0,0,2.87-.862.567.567,0,0,0-.258-1.057,1.067,1.067,0,0,1-.919-.877,15.7,15.7,0,0,1,2.436-.022h.052a2.195,2.195,0,0,0,1.957-1.261,1.945,1.945,0,0,0,.137-.426.369.369,0,0,0,.009-.04,1.748,1.748,0,0,0-.032-.787l-.231-4.076a51.557,51.557,0,0,0,36.285-49.235" transform="translate(2.511 2.508)" fill="#fff"/>
    <path id="Tracciato_1353" data-name="Tracciato 1353" d="M41.881,88.32q-.492.031-.986.034.247-.622.491-1.252.247.612.495,1.218m-.056-2.352a.132.132,0,0,0-.13-.08c-.2.01-.4.017-.595.021a.142.142,0,0,0-.13.089q-.855,2.107-1.71,4.117a.151.151,0,0,0,.013.135.162.162,0,0,0,.117.075c.2.019.4.035.6.047a.133.133,0,0,0,.131-.082c.153-.382.3-.766.459-1.152.538.009,1.077-.01,1.616-.053q.239.585.477,1.164a.123.123,0,0,0,.131.074.1.1,0,0,0,.029-.006c.193-.062.384-.127.578-.2a.172.172,0,0,0,.093-.086.149.149,0,0,0,.008-.122q-.845-1.936-1.687-3.944" transform="translate(11.609 25.403)" fill="#fff"/>
    <path id="Tracciato_1354" data-name="Tracciato 1354" d="M46.942,87.039A1.843,1.843,0,0,1,45.4,88.916c-.179.047-.354.093-.531.137V86.184c.181-.047.367-.095.551-.144.982-.266,1.525.073,1.525,1M45.4,85.247q-.634.169-1.269.316a.188.188,0,0,0-.139.174V89.92a.108.108,0,0,0,.139.11c.416-.095.828-.2,1.241-.31a3.1,3.1,0,0,0,2.467-2.961c0-1.379-.937-1.922-2.44-1.512" transform="translate(13.011 25.174)" fill="#fff"/>
    <path id="Tracciato_1355" data-name="Tracciato 1355" d="M50.838,84.348c.521-.152.858.193.867.868a2.025,2.025,0,0,1-.873.535c-.5.149-.74,0-.74-.466a.95.95,0,0,1,.746-.937m.013-.766a2.19,2.19,0,0,0-1.608,1.99c0,.881.561,1.247,1.469.977a2.877,2.877,0,0,0,.8-.387,3.32,3.32,0,0,1-1.6,1.476.206.206,0,0,0-.11.2c.028.154.056.307.083.46a.1.1,0,0,0,.06.075.114.114,0,0,0,.078,0,.141.141,0,0,0,.03-.012A3.91,3.91,0,0,0,52.538,85c0-1.156-.645-1.718-1.687-1.414" transform="translate(14.564 24.697)" fill="#fff"/>
    <path id="Tracciato_1356" data-name="Tracciato 1356" d="M53.757,86.669c-.511.091-.838-.241-.866-.893a1.7,1.7,0,0,1,.866-.455c.511-.089.748.091.748.539a.813.813,0,0,1-.748.809m.127-2.132a2.217,2.217,0,0,0-.84.333,2.584,2.584,0,0,1,1.582-1.35.165.165,0,0,0,.1-.175c-.025-.158-.051-.316-.075-.474a.122.122,0,0,0-.061-.088.135.135,0,0,0-.11,0,3.374,3.374,0,0,0-2.427,3.134c0,1.16.644,1.709,1.681,1.521a1.806,1.806,0,0,0,1.616-1.7,1.145,1.145,0,0,0-1.471-1.195" transform="translate(15.397 24.481)" fill="#fff"/>
    <path id="Tracciato_1357" data-name="Tracciato 1357" d="M57.784,86.511a.158.158,0,0,0-.139-.133,14.751,14.751,0,0,0-1.622-.061q.486-.48.973-.929c.531-.495.8-.827.8-1.386a1.37,1.37,0,0,0-1.477-1.379,2.022,2.022,0,0,0-1.368.546.156.156,0,0,0-.049.136c.027.174.056.347.083.521a.127.127,0,0,0,.089.1.143.143,0,0,0,.139-.034,1.588,1.588,0,0,1,1.075-.486c.573.005.639.33.639.564,0,.272-.13.486-.517.868q-.789.783-1.582,1.644a.152.152,0,0,0-.043.1v.419a.129.129,0,0,0,.141.131,15.475,15.475,0,0,1,2.794.016.126.126,0,0,0,.106-.039.133.133,0,0,0,.032-.11l-.076-.494" transform="translate(16.204 24.437)" fill="#fff"/>
    <path id="Tracciato_1358" data-name="Tracciato 1358" d="M47.194,87.442a.611.611,0,0,0-.411.546.293.293,0,0,0,.411.289.614.614,0,0,0,.412-.547.293.293,0,0,0-.412-.288" transform="translate(13.837 25.857)" fill="#fff"/>
    <path id="Tracciato_1359" data-name="Tracciato 1359" d="M43.11,88.5a.511.511,0,0,0-.412.486.341.341,0,0,0,.412.349.52.52,0,0,0,.412-.494.336.336,0,0,0-.412-.341" transform="translate(12.628 26.174)" fill="#fff"/>
    <path id="Tracciato_1360" data-name="Tracciato 1360" d="M18.17,82.08l-2.585,1.158,1.165-2.586Zm3.626-1.5a.174.174,0,0,0-.121-.051.166.166,0,0,0-.07.016l-2.179.98L17.312,79.4l1.024-2.255a.173.173,0,0,0-.062-.214l-.889-.571a.167.167,0,0,0-.093-.027.161.161,0,0,0-.048.008.164.164,0,0,0-.106.095L13.8,84.009a.173.173,0,0,0,.034.189l.753.755a.172.172,0,0,0,.121.051.185.185,0,0,0,.067-.014L22.5,81.618a.17.17,0,0,0,.052-.276Z" transform="translate(4.077 22.577)" fill="#f9b000"/>
    <path id="Tracciato_1361" data-name="Tracciato 1361" d="M17.595,76.183a.182.182,0,0,0-.034-.126l-2.467-3.194a.166.166,0,0,0-.124-.066H14.96a.172.172,0,0,0-.124.052l-.68.711a.168.168,0,0,0-.012.222l1.62,2.1-5.287,4.079a.171.171,0,0,0-.03.238l.65.844a.169.169,0,0,0,.113.065h.022a.164.164,0,0,0,.1-.035L17.53,76.3a.171.171,0,0,0,.065-.113" transform="translate(3.079 21.531)" fill="#f9b000"/>
    <path id="Tracciato_1362" data-name="Tracciato 1362" d="M15.909,73.941a.167.167,0,0,0-.013-.136l-.488-.869a.168.168,0,0,0-.148-.087.178.178,0,0,0-.073.016L10.2,75.182,13.98,70.54a.171.171,0,0,0,.014-.19l-.393-.7a.174.174,0,0,0-.149-.087H13.43l-5.936.807,4.577-3.061a.167.167,0,0,0,.053-.224l-.5-.89a.165.165,0,0,0-.108-.082.214.214,0,0,0-.04-.005.17.17,0,0,0-.095.03L4.863,70.5a.168.168,0,0,0-.054.224l.636,1.136a.171.171,0,0,0,.149.087H5.62l6.343-.949L7.848,75.916a.168.168,0,0,0-.017.192l.644,1.147a.165.165,0,0,0,.146.087.178.178,0,0,0,.073-.016l7.125-3.282a.175.175,0,0,0,.089-.1" transform="translate(1.416 19.553)" fill="#f9b000"/>
    <path id="Tracciato_1363" data-name="Tracciato 1363" d="M4.663,65.543,6.818,63.7,7.5,65.594Zm6.953,1.476a.171.171,0,0,0,.161-.228l-.363-1.013a.17.17,0,0,0-.157-.113l-2.391-.04L7.86,62.8,9.745,61.2a.169.169,0,0,0,.032-.219l-.561-.9a.165.165,0,0,0-.117-.078l-.027,0a.174.174,0,0,0-.111.043L2.718,65.481a.169.169,0,0,0-.047.185l.358,1a.17.17,0,0,0,.155.113l8.426.237h.005" transform="translate(0.787 17.747)" fill="#f9b000"/>
    <path id="Tracciato_1364" data-name="Tracciato 1364" d="M5.069,52.136a3,3,0,0,0,3.263-3.171A3.209,3.209,0,0,0,7.457,46.6a3.413,3.413,0,0,0-2.432-.888l-4.8-.038h0a.171.171,0,0,0-.172.168L.039,46.9a.172.172,0,0,0,.168.172l4.761.038c.941.006,2.06.333,2.049,1.84C7,50.421,5.879,50.73,4.938,50.73H4.9L.18,50.692h0a.169.169,0,0,0-.17.168L0,51.926a.173.173,0,0,0,.048.12.167.167,0,0,0,.121.051l4.863.039Z" transform="translate(0 13.508)" fill="#f9b000"/>
    <path id="Tracciato_1365" data-name="Tracciato 1365" d="M.388,44.867l7.724,1.227H8.14a.167.167,0,0,0,.167-.143l.155-.974a.171.171,0,0,0-.141-.194L2.84,43.914l6.2-3.052a.169.169,0,0,0,.092-.126l.127-.794a.172.172,0,0,0-.143-.2L1.4,38.521a.084.084,0,0,0-.025,0,.171.171,0,0,0-.1.032.167.167,0,0,0-.069.111l-.153.973a.168.168,0,0,0,.14.2l5.259.834L.489,43.606a.176.176,0,0,0-.093.126l-.148.941a.184.184,0,0,0,.029.127.178.178,0,0,0,.111.067" transform="translate(0.073 11.393)" fill="#f9b000"/>
    <path id="Tracciato_1366" data-name="Tracciato 1366" d="M1.72,36.71,9.256,38.8A.145.145,0,0,0,9.3,38.8a.182.182,0,0,0,.084-.022.17.17,0,0,0,.079-.1l.285-1.026a.171.171,0,0,0-.121-.21L2.094,35.355a.183.183,0,0,0-.045-.006.169.169,0,0,0-.163.124L1.6,36.5a.154.154,0,0,0,.016.128.163.163,0,0,0,.1.08" transform="translate(0.472 10.455)" fill="#f9b000"/>
    <path id="Tracciato_1367" data-name="Tracciato 1367" d="M2.569,35.378h0l8.277-.045a.173.173,0,0,0,.158-.11l.342-.889a.172.172,0,0,0-.045-.187L5.066,28.479a.17.17,0,0,0-.114-.044.12.12,0,0,0-.038.005.17.17,0,0,0-.122.1l-.4,1.048a.169.169,0,0,0,.047.188l4.8,4.24-6.494-.058h0a.172.172,0,0,0-.168.144L2.4,35.181a.17.17,0,0,0,.039.137.172.172,0,0,0,.13.06" transform="translate(0.709 8.411)" fill="#f9b000"/>
    <path id="Tracciato_1368" data-name="Tracciato 1368" d="M5.238,27.815l6.879,3.72a.181.181,0,0,0,.08.021.171.171,0,0,0,.15-.089l2.059-3.808a.17.17,0,0,0-.07-.231l-.858-.464a.161.161,0,0,0-.128-.013.166.166,0,0,0-.1.082l-1.471,2.722-2.014-1.09,1.158-2.143a.171.171,0,0,0,.009-.143.166.166,0,0,0-.1-.1L9.9,25.955a.173.173,0,0,0-.056-.009.171.171,0,0,0-.15.089l-1.083,2-1.695-.916L8.331,24.5a.164.164,0,0,0,.013-.128.16.16,0,0,0-.082-.1l-.856-.464a.175.175,0,0,0-.083-.021.168.168,0,0,0-.148.089L5.17,27.584a.17.17,0,0,0,.069.231" transform="translate(1.523 7.036)" fill="#f9b000"/>
    <path id="Tracciato_1369" data-name="Tracciato 1369" d="M11.17,21.065a1.181,1.181,0,0,1,.68.245,1.036,1.036,0,0,1,.487.822,1.827,1.827,0,0,1-.4,1.1l-.424.6L9.6,22.482l.49-.695a1.393,1.393,0,0,1,1.082-.722m3.1,6.43a.17.17,0,0,0,.1.031.173.173,0,0,0,.141-.073l.612-.871a.171.171,0,0,0,.03-.127.18.18,0,0,0-.07-.11l-2.558-1.8.315-.447,4.052-.01a.173.173,0,0,0,.157-.1l.425-1.017a.17.17,0,0,0-.017-.159.163.163,0,0,0-.14-.075l-3.784.012a2.259,2.259,0,0,0-.92-2.614,2.359,2.359,0,0,0-1.368-.472,2.735,2.735,0,0,0-2.181,1.355L7.839,22.755a.173.173,0,0,0,.041.237Z" transform="translate(2.309 5.814)" fill="#f9b000"/>
    <path id="Tracciato_1370" data-name="Tracciato 1370" d="M12.582,19.624a1.943,1.943,0,0,0,1.359.577,4.828,4.828,0,0,0,1.874-.533,3.535,3.535,0,0,1,1.307-.4,1.076,1.076,0,0,1,.994,1.035,1.4,1.4,0,0,1-.4.847,3.71,3.71,0,0,1-1.787,1.028.167.167,0,0,0-.118.113.165.165,0,0,0,.031.161l.7.846a.172.172,0,0,0,.131.061.184.184,0,0,0,.058-.01,4.92,4.92,0,0,0,1.91-1.332,2.817,2.817,0,0,0,.8-1.833,2.226,2.226,0,0,0-.79-1.714,2.1,2.1,0,0,0-1.462-.63,4.815,4.815,0,0,0-1.862.518A3.8,3.8,0,0,1,14,18.766a.759.759,0,0,1-.544-.232c-.417-.376-.384-.9.093-1.425a2.6,2.6,0,0,1,1.434-.781.176.176,0,0,0,.128-.109.17.17,0,0,0-.027-.166l-.679-.838a.167.167,0,0,0-.132-.063.2.2,0,0,0-.053.008,3.656,3.656,0,0,0-1.592,1.075,2.279,2.279,0,0,0-.045,3.39" transform="translate(3.505 4.482)" fill="#f9b000"/>
    <path id="Tracciato_1371" data-name="Tracciato 1371" d="M20.451,19.5a.171.171,0,0,0,.119.054h0a.179.179,0,0,0,.118-.045l.779-.727a.169.169,0,0,0,.009-.241l-5.331-5.722a.185.185,0,0,0-.121-.054h0a.173.173,0,0,0-.118.047l-.779.726a.169.169,0,0,0-.008.241Z" transform="translate(4.458 3.775)" fill="#f9b000"/>
    <path id="Tracciato_1372" data-name="Tracciato 1372" d="M20.933,11.073l1.9-1.453a.177.177,0,0,0,.069-.127.174.174,0,0,0-.053-.132l-.72-.678a.167.167,0,0,0-.117-.047.172.172,0,0,0-.1.035l-4.736,3.622a.174.174,0,0,0-.065.113.167.167,0,0,0,.034.126l.592.775a.169.169,0,0,0,.135.066.164.164,0,0,0,.1-.035l1.845-1.411,4.058,5.3a.158.158,0,0,0,.111.065l.022,0a.175.175,0,0,0,.1-.035l.846-.648a.171.171,0,0,0,.031-.238Z" transform="translate(5.059 2.555)" fill="#f9b000"/>
    <path id="Tracciato_1373" data-name="Tracciato 1373" d="M27.155,10.243l-1.734,1.022-.483-2.792ZM24.632,6.551a.164.164,0,0,0-.1-.036.166.166,0,0,0-.086.023l-.917.542a.169.169,0,0,0-.083.174L24.8,15.576a.173.173,0,0,0,.1.127.183.183,0,0,0,.073.016.163.163,0,0,0,.086-.023l.928-.547a.173.173,0,0,0,.083-.176l-.411-2.354,2.58-1.523,1.933,1.551a.166.166,0,0,0,.22-.009l.775-.719a.168.168,0,0,0,.053-.132.162.162,0,0,0-.065-.126Z" transform="translate(6.932 1.928)" fill="#f9b000"/>
    <path id="Tracciato_1374" data-name="Tracciato 1374" d="M31.485,6.962c-1.313-.032-1.582-.178-1.774-.627a.811.811,0,0,1-.009-.667,1.274,1.274,0,0,1,.693-.586,2.427,2.427,0,0,1,.96-.189,2.766,2.766,0,0,1,.67.083.152.152,0,0,0,.041.005.168.168,0,0,0,.121-.049.173.173,0,0,0,.044-.162l-.262-1.047a.17.17,0,0,0-.144-.127,3.391,3.391,0,0,0-.4-.023,3.791,3.791,0,0,0-1.5.328,2.279,2.279,0,0,0-1.468,3.055c.491,1.148,1.331,1.367,2.914,1.4,1.331.027,1.6.188,1.828.726a.919.919,0,0,1-.008.818,1.39,1.39,0,0,1-.715.6,3.3,3.3,0,0,1-1.3.249,4.176,4.176,0,0,1-.75-.069l-.031,0a.166.166,0,0,0-.124.054.171.171,0,0,0-.04.159l.281,1.063a.174.174,0,0,0,.15.127c.11.009.223.013.337.013a5.034,5.034,0,0,0,1.958-.417,2.814,2.814,0,0,0,1.491-1.329,2.227,2.227,0,0,0,.005-1.887c-.525-1.23-1.376-1.463-2.969-1.5" transform="translate(8.361 1.057)" fill="#f9b000"/>
    <path id="Tracciato_1375" data-name="Tracciato 1375" d="M45.365,3.554c-1.236-.438-1.449-.66-1.491-1.147a.8.8,0,0,1,.2-.638,1.271,1.271,0,0,1,.838-.342c.066-.005.131-.008.2-.008a2.631,2.631,0,0,1,1.385.413.171.171,0,0,0,.167.008.171.171,0,0,0,.093-.14L46.832.624a.173.173,0,0,0-.1-.166,3.5,3.5,0,0,0-1.5-.316c-.13,0-.267.006-.4.018a2.765,2.765,0,0,0-1.773.761,2.08,2.08,0,0,0-.571,1.69c.11,1.243.842,1.71,2.335,2.235,1.258.438,1.463.674,1.516,1.258a.933.933,0,0,1-.262.775,1.4,1.4,0,0,1-.868.349c-.083.008-.166.012-.25.012A3.864,3.864,0,0,1,43.2,6.763a.16.16,0,0,0-.079-.021.178.178,0,0,0-.084.022.167.167,0,0,0-.086.139L42.893,8a.167.167,0,0,0,.1.166,4.74,4.74,0,0,0,1.826.349c.158,0,.319-.006.478-.021a2.818,2.818,0,0,0,1.832-.8,2.225,2.225,0,0,0,.59-1.793c-.117-1.331-.854-1.817-2.357-2.347" transform="translate(12.564 0.043)" fill="#f9b000"/>
    <path id="Tracciato_1376" data-name="Tracciato 1376" d="M53.589.183,47.63,0h0a.168.168,0,0,0-.117.047.164.164,0,0,0-.053.118l-.031.974a.171.171,0,0,0,.165.175l2.323.071-.2,6.673a.171.171,0,0,0,.166.175l1.063.032h.005a.173.173,0,0,0,.172-.166l.2-6.672,2.392.073h.005a.167.167,0,0,0,.126-.056.173.173,0,0,0,.043-.136l-.13-.98a.17.17,0,0,0-.163-.148" transform="translate(14.026 0.001)" fill="#f9b000"/>
    <path id="Tracciato_1377" data-name="Tracciato 1377" d="M60.541,1.378,59.49,1.2a.1.1,0,0,0-.029,0,.161.161,0,0,0-.1.031.176.176,0,0,0-.071.11l-.8,4.692c-.2,1.171-.777,1.765-1.713,1.765a2.571,2.571,0,0,1-.434-.039c-1.459-.251-1.572-1.428-1.411-2.37l.8-4.66A.161.161,0,0,0,55.7.6a.169.169,0,0,0-.11-.07L54.54.35l-.027,0a.17.17,0,0,0-.168.141l-.822,4.793a3,3,0,0,0,2.6,3.768,4.166,4.166,0,0,0,.7.063,3.025,3.025,0,0,0,3.04-2.8l.812-4.737a.17.17,0,0,0-.137-.2" transform="translate(15.81 0.103)" fill="#f9b000"/>
    <path id="Tracciato_1378" data-name="Tracciato 1378" d="M65.566,7.227a2.421,2.421,0,0,1-2.354,1.966A3.926,3.926,0,0,1,62,8.977l-.981-.321L62.75,3.38l1.011.332a2.544,2.544,0,0,1,1.8,3.515M64.135,2.462l-2.154-.707a.173.173,0,0,0-.052-.008.18.18,0,0,0-.078.018.171.171,0,0,0-.084.1l-2.44,7.431a.171.171,0,0,0,.109.214l2.111.693a5.5,5.5,0,0,0,1.713.294,3.765,3.765,0,0,0,3.676-2.831c.794-2.42-.251-4.365-2.8-5.2" transform="translate(17.544 0.517)" fill="#f9b000"/>
    <path id="Tracciato_1379" data-name="Tracciato 1379" d="M69.929,4.735a.163.163,0,0,0-.088-.095L68.87,4.2a.179.179,0,0,0-.071-.014.166.166,0,0,0-.154.1l-3.221,7.128a.17.17,0,0,0,.086.225l.972.438a.154.154,0,0,0,.07.016.185.185,0,0,0,.058-.01.175.175,0,0,0,.1-.089l3.22-7.129a.161.161,0,0,0,0-.13" transform="translate(19.345 1.239)" fill="#f9b000"/>
    <path id="Tracciato_1380" data-name="Tracciato 1380" d="M74.56,11.727a2.866,2.866,0,0,1-2.348,1.644,2.238,2.238,0,0,1-1.148-.336c-1.237-.736-1.436-2.154-.517-3.7a2.868,2.868,0,0,1,2.348-1.646,2.22,2.22,0,0,1,1.148.337c1.239.736,1.436,2.152.517,3.7m.166-4.822a3.749,3.749,0,0,0-1.932-.56A4.16,4.16,0,0,0,69.3,8.612c-1.289,2.168-.855,4.4,1.078,5.547a3.766,3.766,0,0,0,1.935.561A4.158,4.158,0,0,0,75.8,12.453c1.31-2.2.888-4.378-1.077-5.547" transform="translate(20.28 1.878)" fill="#f9b000"/>
    <path id="Tracciato_1381" data-name="Tracciato 1381" d="M79.865,13.781a1.04,1.04,0,0,1-.829.433,1.811,1.811,0,0,1-1.091-.469l-.574-.464,1.473-1.824.663.534a1.606,1.606,0,0,1,.635.911,1.068,1.068,0,0,1-.277.88m1.13.84a2.229,2.229,0,0,0,.525-1.859,3.075,3.075,0,0,0-1.174-1.739L78.687,9.684a.166.166,0,0,0-.106-.038h-.018a.174.174,0,0,0-.114.062l-4.914,6.086a.165.165,0,0,0-.036.124.168.168,0,0,0,.062.114l.829.67a.166.166,0,0,0,.106.038h.018a.171.171,0,0,0,.114-.062l1.966-2.433.425.343-.255,4.043a.17.17,0,0,0,.093.162l.987.491a.179.179,0,0,0,.076.018.162.162,0,0,0,.084-.023.166.166,0,0,0,.086-.136l.235-3.776a2.669,2.669,0,0,0,.89.161A2.249,2.249,0,0,0,81,14.62" transform="translate(21.738 2.854)" fill="#f9b000"/>
    <path id="Tracciato_1382" data-name="Tracciato 1382" d="M79.243,21.454a3.181,3.181,0,0,0,2.312,1.108,3.435,3.435,0,0,0,2.33-1.04l3.5-3.3a.171.171,0,0,0,.006-.241l-.731-.775a.168.168,0,0,0-.118-.054h0a.167.167,0,0,0-.118.047l-3.466,3.265a2.234,2.234,0,0,1-1.486.72,1.748,1.748,0,0,1-1.267-.635c-1.016-1.077-.4-2.086.3-2.742l3.442-3.242a.175.175,0,0,0,.053-.118.169.169,0,0,0-.047-.122l-.732-.776a.168.168,0,0,0-.238-.006L79.435,16.88a3,3,0,0,0-.192,4.574" transform="translate(23.152 3.993)" fill="#f9b000"/>
    <path id="Tracciato_1383" data-name="Tracciato 1383" d="M81.652,23.128a.166.166,0,0,0,.025.135l.552.831a.172.172,0,0,0,.141.075.159.159,0,0,0,.083-.022l4.8-2.691-3.417,4.919a.166.166,0,0,0,0,.192l.444.67a.171.171,0,0,0,.141.076.345.345,0,0,0,.036,0l5.859-1.257-4.333,3.4a.17.17,0,0,0-.036.228l.566.85a.172.172,0,0,0,.114.074h.027a.164.164,0,0,0,.1-.036l6.172-4.844a.17.17,0,0,0,.036-.228l-.722-1.086a.17.17,0,0,0-.141-.075.2.2,0,0,0-.039,0L85.81,25.766l3.73-5.219a.17.17,0,0,0,0-.193l-.728-1.095a.172.172,0,0,0-.143-.076.163.163,0,0,0-.083.022l-6.856,3.815a.172.172,0,0,0-.083.109" transform="translate(24.148 5.674)" fill="#f9b000"/>
    <path id="Tracciato_1384" data-name="Tracciato 1384" d="M93.733,37.875l2.36-.56.181.762a1.718,1.718,0,0,1-.039,1.147,1.063,1.063,0,0,1-.772.547,1.659,1.659,0,0,1-.376.048c-.593,0-1-.42-1.189-1.249Zm-4.6-.3a.178.178,0,0,0-.021.128l.247,1.037a.166.166,0,0,0,.165.131.208.208,0,0,0,.039,0l2.923-.692.15.639a3.645,3.645,0,0,0,.888,1.753,2.175,2.175,0,0,0,1.6.665,2.974,2.974,0,0,0,.693-.086c1.48-.35,2.119-1.585,1.71-3.305l-.478-2.017a.172.172,0,0,0-.075-.106.174.174,0,0,0-.091-.025.219.219,0,0,0-.039,0l-7.611,1.8a.177.177,0,0,0-.1.076" transform="translate(26.355 10.556)" fill="#f9b000"/>
    <path id="Tracciato_1385" data-name="Tracciato 1385" d="M96.674,43.881l-2.518,1.3-.228-2ZM90.2,40.854a.17.17,0,0,0-.111.041.168.168,0,0,0-.057.148l.122,1.07a.169.169,0,0,0,.127.145l2.317.584.339,2.976-2.2,1.132a.168.168,0,0,0-.083.206l.341,1a.172.172,0,0,0,.1.1.165.165,0,0,0,.065.013.17.17,0,0,0,.079-.019l7.315-3.868a.17.17,0,0,0,.091-.17l-.121-1.059a.167.167,0,0,0-.126-.145l-8.15-2.152a.167.167,0,0,0-.043-.005" transform="translate(26.628 12.084)" fill="#f9b000"/>
    <path id="Tracciato_1386" data-name="Tracciato 1386" d="M97.535,49.114l-.021.85c-.021.915-.409,1.379-1.157,1.379h-.043c-1.025-.025-1.156-.98-1.143-1.547l.017-.736ZM98.8,47.788a.17.17,0,0,0-.119-.053l-7.82-.181h0a.171.171,0,0,0-.171.166l-.025,1.065a.169.169,0,0,0,.047.122.166.166,0,0,0,.12.052l3.127.074-.013.547-3.36,2.262a.17.17,0,0,0-.071.174l.214,1.083a.166.166,0,0,0,.1.124.174.174,0,0,0,.063.013.17.17,0,0,0,.095-.03l3.137-2.116a2.256,2.256,0,0,0,2.22,1.66h.073c1.451,0,2.341-1.013,2.382-2.711l.049-2.13a.169.169,0,0,0-.047-.122" transform="translate(26.768 14.065)" fill="#f9b000"/>
    <path id="Tracciato_1387" data-name="Tracciato 1387" d="M98.684,54.616,91.1,52.6a.164.164,0,0,0-.044-.005.175.175,0,0,0-.091.026.18.18,0,0,0-.076.114l-.177.981a.168.168,0,0,0,.123.194l5.322,1.4L90.286,56.47a.171.171,0,0,0-.136.137l-.144.79a.17.17,0,0,0,.076.175l5.087,3.166-5.476-.562h-.018a.171.171,0,0,0-.167.14l-.184,1a.173.173,0,0,0,.031.133.175.175,0,0,0,.121.067l7.8.8h.017a.172.172,0,0,0,.168-.14L97.7,60.9a.166.166,0,0,0-.079-.176l-5.49-3.317,6.309-1.165a.168.168,0,0,0,.135-.137l.237-1.293a.171.171,0,0,0-.124-.194" transform="translate(26.418 15.556)" fill="#f9b000"/>
    <path id="Tracciato_1388" data-name="Tracciato 1388" d="M96.751,63.189l-7.4-2.524a.155.155,0,0,0-.054-.009.169.169,0,0,0-.161.115l-1.4,4.1a.156.156,0,0,0,.009.13.163.163,0,0,0,.1.086l.923.315a.155.155,0,0,0,.054.009.172.172,0,0,0,.162-.115l1-2.928,2.167.739-.785,2.306a.167.167,0,0,0,.014.143.164.164,0,0,0,.117.08l.974.165.03,0a.172.172,0,0,0,.161-.115l.735-2.156,1.823.622-.963,2.821a.186.186,0,0,0,.008.13.179.179,0,0,0,.1.087l.923.314a.178.178,0,0,0,.056.009A.168.168,0,0,0,95.5,67.4L96.857,63.4a.172.172,0,0,0-.106-.215" transform="translate(25.946 17.94)" fill="#f9b000"/>
    <path id="Tracciato_1389" data-name="Tracciato 1389" d="M95.132,68.511,88.12,65.046a.182.182,0,0,0-.075-.018.169.169,0,0,0-.153.1l-.437.884a.173.173,0,0,0-.01.13.18.18,0,0,0,.087.1l4.978,2.459-6.831,1.072a.177.177,0,0,0-.128.093l-.355.722a.171.171,0,0,0,.078.228l7.013,3.465a.166.166,0,0,0,.074.017.169.169,0,0,0,.153-.095l.437-.884a.17.17,0,0,0,.01-.131.173.173,0,0,0-.087-.1L88.1,70.725l6.564-1.04a.164.164,0,0,0,.124-.092l.424-.854a.172.172,0,0,0-.078-.228" transform="translate(25.192 19.233)" fill="#f9b000"/>
    <path id="Tracciato_1390" data-name="Tracciato 1390" d="M89.912,73.772a2.035,2.035,0,0,0-1.162-.4,4.189,4.189,0,0,0-2.045.809,2.92,2.92,0,0,1-1.363.591.984.984,0,0,1-.568-.2,1.054,1.054,0,0,1-.163-1.586,3.7,3.7,0,0,1,1.624-1.267.172.172,0,0,0,.1-.128.175.175,0,0,0-.053-.155l-.816-.739a.171.171,0,0,0-.115-.044.175.175,0,0,0-.079.021,4.951,4.951,0,0,0-1.705,1.586,2.383,2.383,0,0,0,.495,3.514,2.211,2.211,0,0,0,1.259.439,4.061,4.061,0,0,0,2.047-.794,3.084,3.084,0,0,1,1.373-.6.788.788,0,0,1,.457.161c.466.314.505.833.108,1.425A2.609,2.609,0,0,1,88,77.374a.17.17,0,0,0-.06.285l.789.736a.171.171,0,0,0,.117.045.176.176,0,0,0,.075-.017,3.652,3.652,0,0,0,1.425-1.289,2.766,2.766,0,0,0,.523-1.856,2.079,2.079,0,0,0-.955-1.507" transform="translate(24.555 20.896)" fill="#f9b000"/>
    <path id="Tracciato_1391" data-name="Tracciato 1391" d="M81.905,74.661a.164.164,0,0,0-.106-.038.17.17,0,0,0-.133.062l-.67.828a.17.17,0,0,0,.025.24l6.08,4.921a.173.173,0,0,0,.108.038h.018a.167.167,0,0,0,.114-.061l.67-.829a.169.169,0,0,0-.025-.238Z" transform="translate(23.944 22.071)" fill="#f9b000"/>
    <path id="Tracciato_1392" data-name="Tracciato 1392" d="M83.545,79.943a5.082,5.082,0,0,0-1.813.464,3.835,3.835,0,0,1-1.285.355.912.912,0,0,1-.684-.316,1.053,1.053,0,0,1,.119-1.589A3.687,3.687,0,0,1,81.7,77.9a.173.173,0,0,0,.124-.109.167.167,0,0,0-.026-.161l-.671-.872a.173.173,0,0,0-.136-.066.156.156,0,0,0-.052.009,4.916,4.916,0,0,0-1.958,1.261,2.828,2.828,0,0,0-.862,1.805,2.226,2.226,0,0,0,.727,1.74,2.09,2.09,0,0,0,1.52.685,5.06,5.06,0,0,0,1.8-.452,4.01,4.01,0,0,1,1.307-.362.758.758,0,0,1,.573.253c.4.39.349.908-.148,1.421a2.606,2.606,0,0,1-1.462.73.169.169,0,0,0-.131.1.166.166,0,0,0,.022.167l.648.863a.166.166,0,0,0,.135.069.184.184,0,0,0,.047-.006,3.665,3.665,0,0,0,1.633-1.017,2.281,2.281,0,0,0,.168-3.386,1.937,1.937,0,0,0-1.416-.627" transform="translate(23.105 22.682)" fill="#f9b000"/>
    <path id="Tracciato_1393" data-name="Tracciato 1393" d="M2.911,56.346A1.147,1.147,0,1,0,4.058,55.2a1.148,1.148,0,0,0-1.147,1.147" transform="translate(0.861 16.326)" fill="#f9b000"/>
    <path id="Tracciato_1394" data-name="Tracciato 1394" d="M38.268,3.878a1.133,1.133,0,0,0-.654-.206,1.148,1.148,0,1,0,.654.206" transform="translate(10.785 1.087)" fill="#f9b000"/>
    <path id="Tracciato_1395" data-name="Tracciato 1395" d="M90.537,30.331a1.131,1.131,0,0,0-.433.086,1.147,1.147,0,0,0,.433,2.208,1.126,1.126,0,0,0,.433-.086,1.147,1.147,0,0,0-.433-2.208" transform="translate(26.438 8.971)" fill="#f9b000"/>
  </g>
</svg>
